<svg width="32" height="32" viewBox="0 0 334 244" fill="none" xmlns="http://www.w3.org/2000/svg">
<path d="M280.219 163.804C275.356 180.098 266.926 199.334 251.886 200.631C234.905 202.095 237.242 188.915 237.242 188.915C227.266 216.954 251.642 237.759 264.843 237.759C280.219 237.759 304.383 218.721 311.705 206.273C325.968 182.026 329.084 153.553 330.743 141.105C331.701 133.923 333.145 125.734 333.558 123.431C333.631 123.026 333.53 122.616 333.264 122.304C331.715 120.489 325.587 113.834 311.929 104.728C298.306 95.6461 287.765 93.7449 287.765 93.7449C287.765 93.7449 294.355 116.444 280.219 163.804Z" fill="#417DF1"/>
<path d="M193.873 219.419C169.855 198.916 176.467 136.195 180.86 115.692C185.253 95.1898 184.775 92.6116 187.45 88.5997C190.379 84.2063 201.362 60.0428 219.668 75.4196C235.84 89.0043 243.099 101.048 237.074 190.862C235.029 221.344 257.577 234.796 266.363 237.725C254.648 240.653 223.894 245.047 193.873 219.419Z" fill="#417DF1"/>
<path d="M228.455 84.2064C219.668 68.4406 192.576 58.2478 169.144 68.8296C157.429 74.1205 133.774 94.0959 116.2 134.515C94.2334 185.039 92.4838 183.79 77.6157 182.325C62.7476 180.861 70.2935 185.254 60.7744 183.057C52.1534 181.068 68.1661 196.169 81.0533 205.541C93.9405 214.914 101.556 216.281 103.752 215.792C115.224 218.477 139.409 212.834 157.937 174.055C182.324 123.015 186.152 118.482 192.576 109.834C211.614 84.2064 220.4 81.6208 228.455 84.2064Z" fill="#362CA7"/>
<path d="M138.391 15.3964C119.061 6.02383 79.5895 -2.16786 67.1416 0.516982C59.8193 3.4459 39.4634 20.4336 16.6178 64.9532C2.82649 91.8285 -3.5271 130.093 1.97321 160.875C5.58426 181.085 7.83104 188.7 15.1533 204.077C22.4756 219.454 37.1202 229.705 37.1202 229.705C37.1202 229.705 53.9348 240.722 75.9284 242.885C92.6273 244.527 113.272 238.491 127.917 226.044C142.561 213.596 155.741 177.716 155.741 177.716C155.741 177.716 135.023 193.837 112.763 195.505C95.2894 196.815 76.5844 185.612 68.0973 175.003C59.3106 164.019 58.5784 120.837 85.6708 75.4392C93.5364 62.259 123.015 22.7187 138.391 15.3964Z" fill="#362CA7"/>
</svg>